<svg width="62" height="62" viewBox="0 0 62 62" fill="none" xmlns="http://www.w3.org/2000/svg">
<rect width="62" height="62" rx="31" fill="#2B331E"/>
<path d="M36.565 32.0649C38.0356 30.9079 39.109 29.3213 39.6359 27.5259C40.1627 25.7304 40.1169 23.8153 39.5047 22.0471C38.8925 20.2789 37.7444 18.7455 36.2201 17.6602C34.6958 16.5749 32.8712 15.9917 31 15.9917C29.1288 15.9917 27.3042 16.5749 25.7799 17.6602C24.2556 18.7455 23.1075 20.2789 22.4953 22.0471C21.8831 23.8153 21.8373 25.7304 22.3641 27.5259C22.891 29.3213 23.9644 30.9079 25.435 32.0649C22.9151 33.0745 20.7164 34.749 19.0733 36.9098C17.4302 39.0707 16.4043 41.6369 16.105 44.3349C16.0833 44.5319 16.1007 44.7312 16.156 44.9215C16.2114 45.1118 16.3037 45.2893 16.4277 45.4439C16.678 45.7562 17.0422 45.9562 17.44 45.9999C17.8378 46.0437 18.2367 45.9276 18.549 45.6773C18.8612 45.4269 19.0612 45.0628 19.105 44.6649C19.4344 41.7327 20.8325 39.0247 23.0323 37.0581C25.2321 35.0916 28.0793 34.0045 31.03 34.0045C33.9806 34.0045 36.8279 35.0916 39.0277 37.0581C41.2275 39.0247 42.6256 41.7327 42.955 44.6649C42.9958 45.0335 43.1716 45.3739 43.4487 45.6205C43.7257 45.867 44.0842 46.0022 44.455 45.9999H44.62C45.0132 45.9547 45.3726 45.7559 45.6198 45.4468C45.8671 45.1377 45.9822 44.7435 45.94 44.3499C45.6392 41.6442 44.6078 39.0714 42.9563 36.9072C41.3047 34.7431 39.0954 33.0692 36.565 32.0649ZM31 30.9999C29.8133 30.9999 28.6533 30.648 27.6666 29.9888C26.6799 29.3295 25.9108 28.3924 25.4567 27.296C25.0026 26.1997 24.8838 24.9933 25.1153 23.8294C25.3468 22.6655 25.9182 21.5964 26.7574 20.7573C27.5965 19.9182 28.6656 19.3467 29.8295 19.1152C30.9933 18.8837 32.1997 19.0025 33.2961 19.4567C34.3925 19.9108 35.3295 20.6798 35.9888 21.6665C36.6481 22.6532 37 23.8133 37 24.9999C37 26.5912 36.3679 28.1174 35.2426 29.2426C34.1174 30.3678 32.5913 30.9999 31 30.9999Z" fill="#BCC8BA"/>
</svg>
